<svg id="Layer_1" data-name="Layer 1" xmlns="http://www.w3.org/2000/svg" viewBox="0 0 900 1020"><path d="M477.91,864.85H422.57a3.79,3.79,0,0,0-3.83,3.83h0V912a3.78,3.78,0,0,0,3.83,3.83h55.34a3.78,3.78,0,0,0,3.83-3.83h0V868.68A4.13,4.13,0,0,0,477.91,864.85Zm-.48,45.27c0,1-.72,1.44-1.68,1.44h-51.5a1.38,1.38,0,0,1-1.44-1.44h0v-39a1.6,1.6,0,0,1,1.44-1.68h51.5a1.6,1.6,0,0,1,1.68,1.44h0Z"/><circle cx="433.11" cy="880.18" r="6.23"/><polygon points="426.88 901.98 426.88 907.73 473.12 907.73 473.12 892.88 459.46 878.75 442.69 895.75 436.94 890.48 426.88 901.98"/><text transform="translate(92.24 292.23)" font-size="160" font-family="AvenirNext-UltraLight, Avenir Next" font-weight="100"><tspan letter-spacing="-0.02em">T</tspan><tspan x="83.52" y="0">hank you</tspan><tspan x="48.8" y="180">for using</tspan></text><path d="M137.34,735.32a89.47,89.47,0,0,0,9.08,15,76,76,0,0,0,11.52,12.27,73.51,73.51,0,0,0,13.82,9.23h0a67.79,67.79,0,0,0,16.09,5.8,81.62,81.62,0,0,0,17.94,1.91,120.6,120.6,0,0,0,16.85-1.11,84.15,84.15,0,0,0,14.77-3.39,79.47,79.47,0,0,0,23.24-11.93l1.85-1.42V654.12h-67v46.51h20.27v27.84a23.73,23.73,0,0,1-10.3,1.91,19.48,19.48,0,0,1-12.28-3.83h0A32.83,32.83,0,0,1,184,715.32a59.61,59.61,0,0,1-5.57-17.3,126.29,126.29,0,0,1-1.81-21.85,118.57,118.57,0,0,1,1.93-21.79,60.11,60.11,0,0,1,5.81-17.31A32.21,32.21,0,0,1,193.72,626h0a20.48,20.48,0,0,1,12.49-3.78c9.55,0,16.88,3.73,22.42,11.39l3.77,5.22,29.15-39.21-2.13-2.83a56.09,56.09,0,0,0-9.64-9.86,69.89,69.89,0,0,0-12.4-7.9,61.83,61.83,0,0,0-15.68-5.31A93.42,93.42,0,0,0,203.13,572a72.45,72.45,0,0,0-16.87,1.93,64.18,64.18,0,0,0-15.36,5.82,70.08,70.08,0,0,0-13.4,9.33,77.53,77.53,0,0,0-11.26,12.46,94.05,94.05,0,0,0-9,15.23,117,117,0,0,0-6.57,17.71,136.74,136.74,0,0,0-4,19.93,177.19,177.19,0,0,0,0,43.5,134.83,134.83,0,0,0,4,19.83A111.85,111.85,0,0,0,137.34,735.32Z"/><path d="M287.35,744.75a65.85,65.85,0,0,0,7,11.85A58.23,58.23,0,0,0,315.7,774a60.21,60.21,0,0,0,14.48,4.79,92.92,92.92,0,0,0,33.91,0,61.07,61.07,0,0,0,26.69-12.28,56.92,56.92,0,0,0,9.68-9.88,67.57,67.57,0,0,0,7.21-11.83,77.51,77.51,0,0,0,4.93-13.56,119.49,119.49,0,0,0,3.76-30.55V577.06H364.25V697a107.22,107.22,0,0,1-.89,14.3,34.8,34.8,0,0,1-2.9,10.44,16.11,16.11,0,0,1-4.94,6.12,15.33,15.33,0,0,1-15.21,0h0a15.82,15.82,0,0,1-4.94-6.11h0a34.48,34.48,0,0,1-2.9-10.43,107.22,107.22,0,0,1-.89-14.3V577.06H279.19V700.7a128.38,128.38,0,0,0,3.47,30.46A74.75,74.75,0,0,0,287.35,744.75Z"/><rect x="437.31" y="577.06" width="52.39" height="198.23"/><path d="M591.41,773.54a76.87,76.87,0,0,0,17.23-5.33,71.35,71.35,0,0,0,14.45-8.64,67.53,67.53,0,0,0,11.72-11.69,78.79,78.79,0,0,0,8.9-14.39,96,96,0,0,0,6.2-16.88,136.94,136.94,0,0,0,3.64-19,176.64,176.64,0,0,0,1.2-20.89,183.27,183.27,0,0,0-1.2-21.33,136.89,136.89,0,0,0-3.64-19.23h0a97.49,97.49,0,0,0-6.19-17,79.89,79.89,0,0,0-8.9-14.52,67,67,0,0,0-11.71-11.79,70.51,70.51,0,0,0-14.47-8.69,77.55,77.55,0,0,0-17.23-5.33,106.39,106.39,0,0,0-19.77-1.75h-57.8V775.29h57.8A106.31,106.31,0,0,0,591.41,773.54Zm-24.92-45V623.84h5.67c8.72,0,15.68,4.07,21.29,12.43,5.92,8.88,8.93,22.49,8.93,40.45a103.55,103.55,0,0,1-2.32,23.16,49.07,49.07,0,0,1-6.61,16.2c-5.61,8.37-12.57,12.44-21.29,12.44Z"/><polygon points="775 727.46 721.4 727.46 721.4 696.36 767.8 696.36 767.8 651.72 721.4 651.72 721.4 624.1 771.81 624.1 771.81 577.07 671.16 577.07 671.16 775.29 775 775.29 775 727.46"/></svg>