<?xml version="1.0" encoding="utf-8"?>
<svg id="Capa_1" data-name="Capa 1" xmlns="http://www.w3.org/2000/svg" width="75.44" height="96.02" viewBox="0 0 75.44 96.02">
  <title>icon</title>
  <g fill="#3e4e61">
    <rect fill="var(--guide-color-link)" x="25.87" y="5.36" width="50.59" height="85.6" transform="translate(-5.96 -7.72) rotate(7.76)"/>
  </g>
  <g fill="#5d7590">
    <rect fill="var(--guide-color-link-active)" x="30.87" y="10.91" width="47.4" height="76.63" transform="matrix(0.96, 0.29, -0.29, 0.96, 3.71, -14.97)"/>
  </g>
  <g fill="#7e9fc3">
    <rect fill="var(--guide-color-bg)" x="21.01" y="5.38" width="55.81" height="87.77" rx="5" ry="5" transform="translate(-0.72 -10.91) rotate(12.87)"/>
    <rect fill="var(--guide-color-bg)" x="26.42" y="10.69" width="44.98" height="77.16" rx="3" ry="3" transform="translate(-0.72 -10.91) rotate(12.87)"/>
  </g>
  <g fill="#FFFFFF">
    <path fill="var(--guide-color-text)" d="M61.75,45.87,39.19,40.72a1.62,1.62,0,0,0-1.94,1.22l-4,17.7a1.63,1.63,0,0,0,1.22,1.94L57,66.74a1.62,1.62,0,0,0,1.94-1.22l4-17.7A1.63,1.63,0,0,0,61.75,45.87ZM57.44,64.21a.65.65,0,0,1-.78.48l-21-4.81a.64.64,0,0,1-.49-.77l3.62-15.86a.65.65,0,0,1,.78-.49l21,4.81a.65.65,0,0,1,.49.78Z" transform="translate(-12.92 -1.26)"/>
    <circle fill="var(--guide-color-text)" cx="29.17" cy="46.73" r="2.57"/>
    <polygon fill="var(--guide-color-text)" points="24.65 54.96 24.11 57.29 42.94 61.59 44.31 55.59 40.06 48.58 31.73 53.89 29.83 51.25 24.65 54.96"/>
  </g>
  <g fill="#FFFFFF">
    <path fill="var(--guide-color-h1)" d="M42.83,35.39a4.08,4.08,0,0,1-1.26-.11,2.79,2.79,0,0,1-1.21-.58,2.82,2.82,0,0,1-.77-1,3.74,3.74,0,0,1-.32-1.39,6.13,6.13,0,0,1,.16-1.66A6.25,6.25,0,0,1,40,29a4,4,0,0,1,.89-1.13A2.77,2.77,0,0,1,42,27.3a2.63,2.63,0,0,1,1.28,0,3,3,0,0,1,1.23.56,2.4,2.4,0,0,1,.67.85l-1.22,1A1.28,1.28,0,0,0,43,29a1.05,1.05,0,0,0-.66,0,1.76,1.76,0,0,0-.55.41,2.76,2.76,0,0,0-.42.7,4.64,4.64,0,0,0-.29.89,5.24,5.24,0,0,0-.14.93,2.59,2.59,0,0,0,.08.81,1.52,1.52,0,0,0,.3.61,1,1,0,0,0,.56.33,1.08,1.08,0,0,0,.65,0l.32-1.42-.82-.18.34-1.5,2.32.53-.92,4.05A3.2,3.2,0,0,1,42.83,35.39Z" transform="translate(-12.92 -1.26)"/>
    <path fill="var(--guide-color-h1)" d="M50.13,35.34a2.74,2.74,0,0,1-.68.85,2.16,2.16,0,0,1-1,.46,3,3,0,0,1-1.25,0,2.77,2.77,0,0,1-1.12-.51,2.14,2.14,0,0,1-.64-.83,2.56,2.56,0,0,1-.23-1.05A5.17,5.17,0,0,1,45.4,33l1.09-4.79,1.73.4-1.06,4.63a5.14,5.14,0,0,0-.1.61,1.41,1.41,0,0,0,0,.51.84.84,0,0,0,.18.38.73.73,0,0,0,.39.21.75.75,0,0,0,.45,0,1,1,0,0,0,.33-.26,1.59,1.59,0,0,0,.24-.45,4.55,4.55,0,0,0,.18-.59L49.92,29l1.71.4-1.09,4.78A4.88,4.88,0,0,1,50.13,35.34Z" transform="translate(-12.92 -1.26)"/>
    <path fill="var(--guide-color-h1)" d="M51.12,37.28l1.74-7.6,1.72.4-1.73,7.6Z" transform="translate(-12.92 -1.26)"/>
    <path fill="var(--guide-color-h1)" d="M60.36,35.42a6.08,6.08,0,0,1-.55,1.51A3.34,3.34,0,0,1,59,38a2.7,2.7,0,0,1-1.16.54,3.52,3.52,0,0,1-1.47-.05L54.2,38l1.74-7.6,2.13.49a3.35,3.35,0,0,1,1.35.59,2.57,2.57,0,0,1,.81,1,3.47,3.47,0,0,1,.3,1.33A6.41,6.41,0,0,1,60.36,35.42ZM58.63,35a3.17,3.17,0,0,0,0-1.82,1.21,1.21,0,0,0-.88-.82l-.42-.09-1,4.59.41.1a1.23,1.23,0,0,0,1.15-.36A3.11,3.11,0,0,0,58.63,35Z" transform="translate(-12.92 -1.26)"/>
    <path fill="var(--guide-color-h1)" d="M60.53,39.43l1.74-7.6,3.67.84-.34,1.52-2-.47-.34,1.5,1.86.42-.32,1.42-1.87-.43-.37,1.63,2.16.5-.36,1.54Z" transform="translate(-12.92 -1.26)"/>
  </g>
</svg>
