<?xml version="1.0" encoding="utf-8"?>
<!-- Generator: Adobe Illustrator 22.1.0, SVG Export Plug-In . SVG Version: 6.00 Build 0)  -->
<svg version="1.1" id="Capa_1" xmlns="http://www.w3.org/2000/svg" xmlns:xlink="http://www.w3.org/1999/xlink" x="0px" y="0px"
	 viewBox="0 0 99 99" style="enable-background:new 0 0 99 99;" xml:space="preserve">
<path d="M64.3,47.7l-28.4-6.5c-0.5-0.1-0.9,0.3-1.1,0.7L30,63.3c-0.1,0.5,0.3,0.9,0.7,1.1L59,70.8c0.5,0.1,0.9-0.3,1.1-0.7l4.8-21.4
	C65.1,48.2,64.7,47.8,64.3,47.7z M39.5,44.9c1.9,0,3.5,1.6,3.5,3.5c0,1.9-1.6,3.5-3.5,3.5c-1.9,0-3.5-1.6-3.5-3.5
	C36,46.4,37.6,44.9,39.5,44.9z M58.1,68.4l-25.4-5.8l0.8-3.2l7-5l2.6,3.5l11.2-7.1l5.7,9.4L58.1,68.4z"/>
<path d="M60.6,33c0.5-0.4,0.9-1.1,1.1-2.2c0.3-1.1,0.3-1.9,0-2.4s-0.7-0.9-1.2-1.1L60,27.2l-1.3,6.2l0.5,0.1
	C59.7,33.7,60.2,33.5,60.6,33z"/>
<path d="M84.6,18.3l0.2-0.7c0.6-2.5-0.8-4.9-3.1-5.8L82,9.2L53.3,5.3l-17-3.9c-1.5-0.4-3.1,0.1-4.2,1h-0.3v0.3
	c-0.7,0.7-1.2,1.5-1.5,2.5L13,81c-0.6,2.7,1.1,5.4,3.8,6l44.7,10.2c2.6,0.6,5.2-1,5.9-3.6l3,0.4l3.8-28l14.1-46.5L84.6,18.3z
	 M60.9,25.3c0.7,0.1,1.3,0.4,1.9,0.8c0.5,0.4,0.8,0.8,1.1,1.3c0.3,0.5,0.4,1.1,0.4,1.7c0,0.7,0,1.3-0.1,2.2c-0.1,0.8-0.4,1.5-0.7,2
	c-0.3,0.5-0.7,1.1-1.1,1.5c-0.4,0.4-0.9,0.7-1.6,0.7c-0.5,0.1-1.2,0.1-2-0.1l-3-0.5l2.3-10.2L60.9,25.3z M53.9,23.7l2.3,0.5
	l-2.3,10.2L51.6,34L53.9,23.7z M44,28.3l1.5-6.5l2.3,0.5l-1.5,6.2c0,0.3-0.1,0.5-0.1,0.8s0,0.5,0,0.7s0.1,0.4,0.3,0.5
	s0.3,0.3,0.5,0.3s0.4,0,0.5,0c0.1-0.1,0.3-0.1,0.4-0.4c0.1-0.1,0.3-0.4,0.3-0.5c0.1-0.3,0.1-0.5,0.3-0.8l1.5-6.2l2.3,0.5l-1.5,6.5
	c0,0.4-0.1,0.9-0.4,1.3c-0.3,0.4-0.5,0.8-0.9,1.2c-0.4,0.3-0.8,0.5-1.3,0.7c-0.5,0.1-1.1,0.1-1.6,0c-0.7-0.1-1.1-0.4-1.5-0.7
	s-0.7-0.7-0.8-1.1s-0.3-0.9-0.3-1.5C43.8,29.4,43.8,28.8,44,28.3z M35.9,24.9c0.1-0.8,0.4-1.5,0.8-2.2s0.7-1.1,1.2-1.5
	c0.4-0.4,0.9-0.7,1.5-0.8c0.5-0.1,1.1-0.1,1.7,0s1.2,0.4,1.6,0.8c0.4,0.4,0.7,0.7,0.9,1.1l-1.6,1.3c-0.3-0.5-0.7-0.9-1.2-1.1
	c-0.3-0.1-0.7,0-0.9,0c-0.3,0.1-0.5,0.3-0.7,0.5c-0.3,0.3-0.4,0.5-0.5,0.9s-0.3,0.8-0.4,1.2C38,25.9,38,26.3,38,26.7s0,0.8,0.1,1.1
	c0.1,0.3,0.3,0.5,0.4,0.8S39,29,39.4,29c0.4,0.1,0.7,0.1,0.8,0l0.4-1.9l-1.1-0.3l0.4-2l3.1,0.7l-1.2,5.4c-0.4,0.4-0.8,0.5-1.3,0.5
	s-1.1,0-1.7-0.1s-1.2-0.4-1.6-0.8s-0.8-0.8-1.1-1.3c-0.3-0.5-0.4-1.2-0.4-1.9C35.6,26.5,35.6,25.7,35.9,24.9z M67.5,48.1l-5.4,23.8
	c-0.3,1.1-1.3,1.9-2.6,1.6l-30.3-7c-1.1-0.3-1.9-1.3-1.6-2.6l5.4-23.8c0.3-1.1,1.3-1.9,2.6-1.6l30.4,7
	C67.1,45.8,67.9,46.9,67.5,48.1z M71.1,29.6L68.4,29L68,31l2.6,0.5l-0.4,1.9l-2.6-0.5L67.1,35l3,0.7l-0.5,2l-5.2-0.9l2.3-10.2l5,1.1
	L71.1,29.6z"/>
</svg>
