<svg id="Layer_1" data-name="Layer 1" xmlns="http://www.w3.org/2000/svg" viewBox="0 0 240 240"><defs><style>.guide_icon--gear{fill:rgba(0, 0, 0, .3);}</style></defs><title>settings</title><path class="guide_icon--gear" d="M240,135V104.5l-35.93-15L201.32,81l15-34.87L194.87,24.5,158.63,39l-8.25-3.75L134.64,0h-29.5L90.06,35.55,82,38.84,45.33,24.94,24,46.38,39.55,81l-4,9L0,105v30l35.82,14.75,4,9-14.72,35.5L46.37,215l35.76-14.5,8.75,4L105.64,240h30l14.74-36.25,8.49-3.25,35.74,14.75L216.09,194l-14.55-36,3.27-8.5ZM120.45,165.13a45.25,45.25,0,1,1,45.25-45.25A45.25,45.25,0,0,1,120.45,165.13Z"/></svg>