<?xml version="1.0" encoding="utf-8"?>
<!-- Generator: Adobe Illustrator 23.0.4, SVG Export Plug-In . SVG Version: 6.00 Build 0)  -->
<svg version="1.1" id="welcome-cover" xmlns="http://www.w3.org/2000/svg" xmlns:xlink="http://www.w3.org/1999/xlink" x="0px"
	 y="0px" viewBox="0 0 26.5 35.2" style="enable-background:new 0 0 26.5 35.2;" xml:space="preserve">
<style type="text/css">
	.st0{fill:#FFFFFF;}
</style>
<path class="st0" d="M24.9,13.8l-23.1,0c-0.9,0-1.6,0.7-1.6,1.6c0,0,0,0,0,0l0,18.1c0,0.9,0.7,1.6,1.6,1.6l23.1,0
	c0.9,0,1.6-0.7,1.6-1.6c0,0,0,0,0,0l0-18.1C26.5,14.6,25.7,13.8,24.9,13.8z M24.7,32.7c0,0.4-0.3,0.6-0.7,0.6l-21.5,0
	c-0.4,0-0.6-0.3-0.6-0.6c0,0,0,0,0,0l0-16.3c0-0.4,0.3-0.7,0.6-0.7c0,0,0,0,0,0l21.5,0c0.4,0,0.7,0.3,0.7,0.6c0,0,0,0,0,0L24.7,32.7
	z"/>
<circle class="st0" cx="6.2" cy="20.2" r="2.6"/>
<polygon class="st0" points="3.6,29.3 3.6,31.7 22.9,31.7 22.9,25.5 17.2,19.6 10.2,26.7 7.8,24.5 "/>
<path class="st0" d="M4.4,8.5C4,8.6,3.5,8.7,3.1,8.7c-0.5,0-0.9-0.1-1.3-0.3c-0.4-0.2-0.7-0.5-1-0.8C0.5,7.2,0.3,6.8,0.2,6.3
	C0.1,5.8,0,5.2,0,4.6c0-0.6,0-1.2,0.2-1.7C0.3,2.4,0.5,2,0.8,1.6c0.3-0.3,0.6-0.6,1-0.8C2.2,0.6,2.6,0.5,3,0.5
	c0.5,0,0.9,0.1,1.3,0.3C4.7,1,5,1.2,5.2,1.5l-1,1.2C3.9,2.4,3.5,2.2,3.1,2.2c-0.2,0-0.5,0-0.6,0.1C2.3,2.5,2.1,2.7,2,2.9
	C1.9,3.2,1.8,3.4,1.8,3.7C1.7,4,1.7,4.3,1.7,4.6c0,0.3,0,0.6,0.1,0.9c0,0.3,0.1,0.5,0.3,0.8c0.1,0.2,0.2,0.4,0.4,0.5
	C2.6,7,2.8,7.1,3.1,7.1c0.2,0,0.4,0,0.6-0.1l0-1.5l-0.8,0l0-1.5l2.4,0l0,4.2C5,8.3,4.7,8.4,4.4,8.5z"/>
<path class="st0" d="M11.5,6.8c-0.1,0.4-0.3,0.7-0.5,1c-0.2,0.3-0.5,0.5-0.9,0.7C9.7,8.7,9.3,8.8,8.9,8.8c-0.4,0-0.8-0.1-1.2-0.2
	C7.4,8.4,7.1,8.1,6.9,7.9c-0.2-0.3-0.4-0.6-0.5-1C6.4,6.5,6.3,6,6.3,5.6l0-4.9l1.8,0l0,4.7c0,0.2,0,0.4,0,0.6c0,0.2,0,0.3,0.1,0.5
	c0.1,0.1,0.1,0.2,0.3,0.3C8.6,7,8.8,7,8.9,7c0.2,0,0.3,0,0.4-0.1c0.1-0.1,0.2-0.2,0.3-0.3c0.1-0.2,0.1-0.3,0.1-0.5
	c0-0.2,0-0.4,0-0.6l0-4.8l1.8,0l0,4.9C11.6,6,11.6,6.4,11.5,6.8z"/>
<path class="st0" d="M12.9,8.5l0-7.8l1.8,0l0,7.8L12.9,8.5z"/>
<path class="st0" d="M21.5,4.7c0,0.5-0.1,1.1-0.2,1.6c-0.1,0.4-0.3,0.9-0.6,1.2c-0.3,0.3-0.6,0.6-1,0.8c-0.5,0.2-0.9,0.3-1.4,0.3
	l-2.2,0l0-7.8l2.2,0c0.5,0,1,0.1,1.4,0.3c0.4,0.2,0.7,0.4,1,0.8c0.3,0.4,0.5,0.8,0.6,1.2C21.4,3.6,21.5,4.1,21.5,4.7z M19.7,4.6
	c0-0.6-0.1-1.2-0.4-1.8c-0.2-0.4-0.6-0.6-1-0.6l-0.4,0l0,4.7l0.4,0c0.4,0,0.8-0.2,1-0.6C19.6,5.8,19.7,5.2,19.7,4.6z"/>
<path class="st0" d="M22.5,8.5l0-7.8l3.8,0l0,1.6l-2.1,0l0,1.5l1.9,0l0,1.5l-1.9,0l0,1.7l2.2,0l0,1.6L22.5,8.5z"/>
</svg>
