<svg id="Layer_3" data-name="Layer 3" xmlns="http://www.w3.org/2000/svg" viewBox="0 0 1024 1024"><path d="M896,122.52C904.73,65.14,871.47,61,871.47,61L738.85,1004.72s25.83,2.49,31.95-35.34S896,122.52,896,122.52Z" fill="#5d7590"/><path d="M210.57,5.2s576.67,39.05,626.7,42.65c40.08,2.88,54.9,20.83,48.34,64.47-9.39,62.52-118.39,805.7-127,861.05s-42.91,48.57-64.36,43.81S108.67,882.7,108.67,882.7s-3.57-1.35-3.21-7.13S204.84,10.63,204.84,10.63,204.75,4.8,210.57,5.2Z" fill="#7e9fc3"/><path d="M379.81,403l2.24.11a2.38,2.38,0,0,0,1.69.42l2.75.13,1.17.39,2.75.14,1.18.39,2.75.15,1.17.38,2.76.15,1.17.39,6.18.66a3.27,3.27,0,0,0,2.25.44l13.47,1.68a3.25,3.25,0,0,0,2.24.45l1.68.09a2.18,2.18,0,0,0,1.66.39l2.28.14,1.07.35,2.85.18a2.29,2.29,0,0,0,1.67.41l2.25.13a2.24,2.24,0,0,0,1.67.39l2.27.14a2.24,2.24,0,0,0,1.65.4l2.27.12c.17.11.34.22.52.32l4.46.24.63.39,3.3.14.62.38,2.78.16,1.14.37,3.32.16.62.38,3.31.15.62.38,3.31.15.61.38,3.31.16.62.37,3.31.16.62.37,3.31.16.62.38,3.31.15.62.38,3.32.17a2.46,2.46,0,0,0,1.75.43l2.17.09.61.38,3.32.17,1.18.39,2.22.13a2.47,2.47,0,0,0,1.7.41l2.22.11.56.34,3.9.2.61.38,15.1,1.77,1.18.39,6.16.66a2.28,2.28,0,0,0,1.68.4l11.16,1.2.64.4,3.29.13.64.41,3.29.12.64.4,18.47,2.26.58.35,7.81.72.63.4,10.63,1.21,1.14.37q14.79,2.06,29.58,4.09c7.28,1,14.55,2,21.84,3,11.44,1.47,20.4,11.21,20.53,22.15,0,3.3-.73,6.51-.74,9.79l-.35,1.1-1.77,14.4-.48,1.59c-.06.88-.13,1.75-.2,2.63a2,2,0,0,0-.36,1.63c0,.54,0,1.08,0,1.61-.78,2.25-.69,4.62-1.09,6.92,0,.53,0,1.07-.07,1.6-.9,1.87-.45,3.95-1,5.86l-.09,2.14c-.74,4.63-1.56,9.24-2.22,13.88-1.26,8.78-2.42,17.56-3.64,26.34q-2.13,15.4-4.27,30.8c-1.18,8.43-2.42,16.84-3.6,25.27-1.44,10.27-2.83,20.54-4.26,30.8-1.38,9.83-2.81,19.65-4.19,29.48-1.42,10.09-2.69,20.2-4.27,30.27-.94,6-1,12.21-3,18.08-3,8.9-10.19,13.4-19.14,15.39-4.48,1-9.14-.52-13.68-1.37q-56.67-10.57-113.36-21-61.92-11.46-123.84-22.87c-19.53-3.59-39.13-6.92-58.62-10.7-12.82-2.49-19.26-12.73-18-23.68,1.85-16.57,3.84-33.13,5.83-49.69,2-16.29,4-32.58,6-48.87,0-.35,0-.71.05-1.06a77.47,77.47,0,0,0,1.29-11.66c.12-.56.25-1.11.37-1.67.17-1.24.34-2.48.52-3.73,0-.53.05-1.06.07-1.6.16-.88.32-1.77.47-2.65,1.85-14.77,3.73-29.54,5.54-44.31s3.49-29.38,5.26-44.07c1.11-9.15,2-18.33,3.5-27.42,1.47-8.82,7-14.67,16.11-17.31,4.09-.47,8.15.15,12.21.42l.62.39,2.8.14,1.12.38,3.32.16.62.38,2.8.14,1.11.38,3.34.16.6.38,3.32.15.61.38,3.32.16.61.37,3.31.16.62.38,3.32.15.6.37,3.32.18a2.42,2.42,0,0,0,1.75.43l2.19.1Zm253.74,65.58c-1.1-3.64-4.22-4.78-7.63-5.27q-29.79-4.27-59.6-8.41Q538.6,451,510.87,447.2l-54.62-7.61q-29.53-4.14-59.05-8.27c-19.13-2.64-38.27-5.2-57.39-7.86-1.79-.24-2.71.15-2.81,1.9a11.42,11.42,0,0,0-2.72,6.3c-.71,6.16-1.52,12.31-2.3,18.47-1.82,14.24-3.69,28.48-5.45,42.72-1.79,14.52-3.42,29-5.22,43.56-2.16,17.5-4.43,35-6.63,52.5s-4.39,34.83-6.54,52.25c-.35,2.84-.5,5.7,1.6,8.13-.5,3,1.69,3.28,3.89,3.68,20.46,3.72,40.9,7.49,61.37,11.17,27.25,4.9,54.52,9.71,81.77,14.61,13,2.34,26,4.82,39.06,7.18q39.36,7.14,78.74,14.2c7.06,1.27,14.06,2.94,21.24,3.49,4.34.33,7.05-1.92,7.93-6,.24-1.13.4-2.28.56-3.42,1.58-11.52,3.12-23,4.72-34.56,2.7-19.43,5.46-38.85,8.15-58.28,2.91-21,5.74-42,8.65-63.06q4.5-32.57,9.07-65.14c.23-1.68.22-3.39-1.36-4.63Z" fill="#fff"/><path d="M590.89,342l-2.2,1.25A101.78,101.78,0,0,1,576,347.24c-7.22,1-14.36.09-21.5-.79-6.66-.82-13.31-1.8-20-2.46-2.43-.23-2.7-1.31-2.45-3.14q1.8-13.32,3.56-26.65,2.67-20.06,5.35-40.11,2.12-16,4.21-31.93c0-.26.11-.52.15-.78.71-4.92.73-5.09,5.56-4.53,10.19,1.19,20.46,1.77,30.59,3.45a45.37,45.37,0,0,1,17.23,6.76,11.17,11.17,0,0,0,1.07,1.2,38.21,38.21,0,0,1,13.74,22.87,90,90,0,0,1,1.06,25.6c-.87,9.26-3.75,17.91-7.51,26.32C603.58,330.75,597.88,336.94,590.89,342Zm-9-25.31a2.19,2.19,0,0,0,1.17-2.2,6.72,6.72,0,0,0,2.14-3.37c3.81-10.55,5.62-21.37,3.9-32.48-1.56-10-7.33-18-19.1-18.05-1.48-.72-2-.08-2.19,1.29-.19,1.84-.37,3.7-.68,5.53-3.18,18.49-5,37.16-7.61,55.72-.23,1.63.3,2.61,2.19,2.58,1.21.08,2.41.16,3.62.27a13.14,13.14,0,0,0,9.45-2.28c3.1-1.66,5.69-3.78,7.11-7Z" fill="#fff"/><path d="M461.9,329.15c-11,7.9-23,7.81-35.08,3.29C415,328,409.64,318.6,407.87,307c-1.45-9.54.22-18.92,1.38-28.33,1.58-12.75,3.23-25.5,4.84-38.26.63-4.93,1.25-9.85,1.81-14.78.23-2.12,1.1-2.73,3.47-2.42,6,.8,12.05,1.24,18.08,1.85.82.09,1.62.35,2.44.52,0,.62,0,1.25-.1,1.86q-1.64,12.63-3.29,25.26c-1.23,9.38-2.52,18.76-3.72,28.15-.87,6.83-1.89,13.65-1.33,20.58.44,5.39,4.07,10.68,8.33,10.51,6.52.12,9.23-1.6,11.67-7.41s2.82-11.72,3.6-17.69q3-23.07,5.95-46.15c.47-3.6.93-7.21,1.34-10.82.14-1.17.4-2.22,1.93-2,7.38,1,14.85,1.26,22.19,2.53q-1.66,12.63-3.32,25.27c-1.9,14.56-3.63,29.15-5.73,43.69C475.75,310.87,471.53,321.32,461.9,329.15Z" fill="#fff"/><path d="M639,246c8.47.86,17.56,1.77,26.65,2.72q11.27,1.17,22.53,2.43c3.69.41,3.71.54,3.21,4-.79,5.45-1.59,10.89-2.27,16.35-.22,1.76-.85,2.08-2.71,1.85-8.42-1.06-16.87-1.9-25.3-2.85-1.72-.2-2.37.44-2.39,2-.1,5.33-1.22,10.57-1.86,15.85-.39,3.26-.38,3.42,3.05,3.8,6.67.75,13.35,1.47,20,2.2,3.39.37,3.52.58,3.06,3.83-.66,4.57-1.26,9.14-1.85,13.72-.43,3.27-.71,3.41-4,3-6.85-.86-13.71-1.58-20.56-2.41-2.4-.29-3.43.28-3.65,2.88-.47,5.83-1.31,11.64-2.3,17.41-.38,2.25.49,2.86,2.49,3.09,8.07.9,16.12,1.87,24.19,2.75,4.21.46,4.32.54,3.76,4.46-.74,5.18-1.52,10.36-2.16,15.55-.28,2.22-1.07,2.88-3.62,2.55C658.47,359,641.61,357,624.76,355c-3.45-.41-3.56-.49-3.12-3.72q5.31-38.9,10.64-77.79c1.17-8.53,2.35-17.06,3.4-25.6C635.9,246.1,636.73,245.63,639,246Z" fill="#fff"/><path d="M390.45,320.18a47.35,47.35,0,0,1-30.62,4.92c-15.68-2.59-25.05-12.18-29.2-26-6.87-22.84-3.5-44.81,8.61-65.56,3.18-5.46,8.1-9.47,13.12-13.33,3.89-1.56,7.54-3.7,11.79-4.38,10.5-1.11,20.24.62,28.71,7a26.88,26.88,0,0,1,6.45,6.93,2,2,0,0,1-.1,2.87q-5.94,6.35-11.76,12.8c-1.35,1.5-2.17,1.64-3.57-.15-5-6.41-12.07-8.32-18.88-5.36a7.85,7.85,0,0,0-3.06,1.8c-4.8,3.93-7.44,9.1-9,14.76-2.47,9-3.88,18.18-2.92,27.6a28.8,28.8,0,0,0,5.1,14.44c1.62,2.26,3.66,4,6.72,4.35l1.26.22,1,.31h1.4c5.85,0,6.51-.59,7.08-6,.44-4.05,1-8.1,1.55-12.13.26-1.72,0-2.69-2.16-2.77s-4.26-.51-6.38-.77c-1.52-.18-1.94-.87-1.73-2.36.75-5.27,1.43-10.55,1.94-15.84.18-1.9,1-2.47,2.84-2.27,5.74.63,11.5,1.17,17.23,1.87,3.79.46,7.63.54,11.36,1.46-.37,2.63-.76,5.26-1.09,7.89-1,8.34-2,16.68-3.11,25C392.05,305.05,391,312.59,390.45,320.18Z" fill="#fff"/><path d="M514,341.17c-5.81,0-11.48-1.26-17.23-1.78-.19,0-.37-.08-.55-.11-7.12-1.09-7.09-1.08-6.22-7.74q3.66-27.82,7.27-55.66c1.83-14,3.71-28,5.49-41.94.22-1.74,1.08-2,2.61-1.85,6.77.71,13.55,1.37,20.31,2.13a20.51,20.51,0,0,1,3.45,1c-.47,1.7-2.13,2.8-2.27,4.77a178.23,178.23,0,0,1-2.53,18.92c-1.81,10.11-2.81,20.36-4.16,30.55-1.23,9.32-2.54,18.62-3.66,27.94C515.52,325.31,514.79,333.25,514,341.17Z" fill="#fff"/><path d="M461.9,329.15c9.63-7.83,13.85-18.28,15.51-29.78,2.1-14.54,3.83-29.13,5.73-43.69q1.64-12.65,3.32-25.27c2.34.05,2.74,1,2.42,3.23-1.91,13.61-3.43,27.27-5.36,40.88-1.55,11-2.13,22.08-5,32.87-2.14,8.07-5.76,15.38-12.61,20.89C464.81,329.18,463.68,330.72,461.9,329.15Z" fill="#a6d5ff"/><path d="M514,341.17c.83-7.92,1.56-15.86,2.51-23.77,1.12-9.32,2.43-18.62,3.66-27.94,1.35-10.19,2.35-20.44,4.16-30.55A178.23,178.23,0,0,0,526.82,240c.14-2,1.8-3.07,2.27-4.77.87.81.61,1.84.48,2.77-1.78,13.42-3.63,26.84-5.41,40.26s-3.49,26.85-5.24,40.28q-1.39,10.67-2.83,21.32C515.93,341,515.59,342.07,514,341.17Z" fill="#a6d5ff"/><path d="M439.78,312c-4.26.17-7.89-5.12-8.33-10.51-.56-6.93.46-13.75,1.33-20.58,1.2-9.39,2.49-18.77,3.72-28.15q1.67-12.63,3.29-25.26c.07-.61.06-1.24.1-1.86,2.25-.14,3,.94,2.71,2.95-1.62,12.12-3.48,24.21-4.76,36.35-1.24,11.88-4,23.63-3.63,35.65C434.34,305.11,435.85,309.07,439.78,312Z" fill="#a6d5ff"/><path d="M590.89,342c7-5.1,12.69-11.29,16.14-19,3.76-8.41,6.64-17.06,7.51-26.32a90,90,0,0,0-1.06-25.6,38.21,38.21,0,0,0-13.74-22.87,11.17,11.17,0,0,1-1.07-1.2c5.18,2,8.53,5.94,11.23,10.28,6.84,11,7.94,23.05,6.93,35.45a96.48,96.48,0,0,1-4.24,22.43c-3.19,9.71-7.81,18.6-16.67,24.89C594.45,341.15,593,342.39,590.89,342Z" fill="#a6d5ff"/><path d="M361.86,302.88c-3.06-.31-5.1-2.09-6.72-4.35a28.8,28.8,0,0,1-5.1-14.44c-1-9.42.45-18.57,2.92-27.6,1.54-5.66,4.18-10.83,9-14.76a7.85,7.85,0,0,1,3.06-1.8c.09,1.06.29,2.18-.62,3-5.51,5-7.79,11.56-9.33,18.35-2.06,9.12-3.07,18.3-1.17,27.6C355,294.4,357.93,298.87,361.86,302.88Z" fill="#a6d5ff"/><path d="M390.45,320.18c.52-7.59,1.6-15.13,2.57-22.67,1.08-8.34,2.07-16.68,3.11-25,.33-2.63.72-5.26,1.09-7.89,2.5-.11,3,1.29,2.73,3.27q-1.76,13.71-3.48,27.43c-.9,7.12-1.75,14.25-2.72,21.36C393.51,318.44,393.89,321,390.45,320.18Z" fill="#a6d5ff"/><path d="M576,347.24a101.78,101.78,0,0,0,12.72-3.95,1,1,0,0,1-.69,1.28C584.1,345.91,580.24,347.41,576,347.24Z" fill="#a6d5ff"/><path d="M570,260.63c-.53,8.23-2,16.35-3.08,24.53-1.49,11.87-3.2,23.71-4.72,35.58-.22,1.65-.84,3.3-.49,5-1.89,0-2.42-.95-2.19-2.58,2.64-18.56,4.43-37.23,7.61-55.72.31-1.83.49-3.69.68-5.53C568,260.55,568.53,259.91,570,260.63Z" fill="#a6d5ff"/><path d="M525.75,502.77a4,4,0,0,1,3.94,1.91q24.91,34.43,49.93,68.8c4.36,6,8.54,12.1,13.19,17.87,2.84,3.53,1.67,7.09,1.19,10.69q-4.08,30.32-8.33,60.61c-.64,4.65-1.41,9.29-2,13.94a2.82,2.82,0,0,1-1.76,2.49c-.84,0-1.68,0-2.52,0-8.16-.56-16-3-24.1-4s-16.24-2.84-24.33-4.46c-14.8-3-29.71-5.39-44.58-8q-50.1-8.85-100.22-17.67c-7.43-1.31-14.86-2.66-22.3-3.95q-18-3.13-36.09-6.22c-.1-6.23,1.24-12.32,1.93-18.48.51-4.47.76-9,1.94-13.38.37-.27.78-.49,1.12-.79q22.74-20,45.47-39.93c5-4.38,10.09-8.69,15.14-13,2.55-.39,3.93,1.19,5.25,2.83l22.14,27.64c.52,1.41,1.42,1.81,2.78.94,1.16-.75,2.36-1.45,3.44-2.28q45.35-34.57,90.68-69.14C520.35,507,522.62,504.41,525.75,502.77Z" fill="#fff"/><path d="M416.4,488c-.1,13.61-4.54,23.92-15.81,30.28-28.38,16-52.39-3.34-54.5-25.59-1.26-13.17,3.4-23.93,14.35-32,9.47-7,20.06-7.14,31.16-4a32.07,32.07,0,0,1,13.81,7.64A33.44,33.44,0,0,1,416.4,488Z" fill="#fff"/></svg>