<?xml version="1.0" encoding="utf-8"?>
<!-- Generator: Adobe Illustrator 22.0.1, SVG Export Plug-In . SVG Version: 6.00 Build 0)  -->
<svg version="1.1" id="Capa_1" xmlns="http://www.w3.org/2000/svg" xmlns:xlink="http://www.w3.org/1999/xlink" x="0px" y="0px"
	 viewBox="0 0 99 99" style="enable-background:new 0 0 99 99;" xml:space="preserve">
<path d="M84.6,18.3l0.2-0.7c0.6-2.5-0.8-4.9-3.1-5.8L82,9.2L53.3,5.3l-17-3.9c-1.5-0.4-3.1,0.1-4.2,1l-0.3,0l0,0.3
	c-0.7,0.7-1.2,1.5-1.5,2.5L13,81c-0.6,2.7,1.1,5.4,3.8,6l44.7,10.2c2.6,0.6,5.2-1,5.9-3.6l3,0.4l3.8-28l14.1-46.5L84.6,18.3z
	 M78.8,19.6L62.9,89c-0.4,1.6-2,2.6-3.6,2.3l-38-8.7c-1.6-0.4-2.6-2-2.3-3.6L34.9,9.6c0.4-1.6,2-2.6,3.6-2.3l38,8.7
	C78.1,16.4,79.1,18,78.8,19.6z"/>
<g>
	<path d="M61.8,45.9l-22.6-5.2c-0.9-0.2-1.7,0.4-1.9,1.2l-4,17.7c-0.2,0.9,0.4,1.7,1.2,1.9L57,66.7c0.9,0.2,1.7-0.4,1.9-1.2l4-17.7
		C63.2,46.9,62.6,46.1,61.8,45.9z M57.4,64.2c-0.1,0.3-0.4,0.6-0.8,0.5l-21.1-4.8c-0.3-0.1-0.6-0.4-0.5-0.8l3.6-15.9
		c0.1-0.3,0.4-0.6,0.8-0.5l21.1,4.8c0.3,0.1,0.6,0.4,0.5,0.8L57.4,64.2z"/>
	<circle cx="42.1" cy="48" r="2.6"/>
	<polygon points="37.6,56.2 37,58.6 55.9,62.9 57.2,56.8 53,49.8 44.7,55.1 42.8,52.5 	"/>
</g>
<g>
	<path d="M42.8,35.4c-0.4,0-0.8,0-1.3-0.1c-0.5-0.1-0.9-0.3-1.2-0.6c-0.3-0.3-0.6-0.6-0.8-1c-0.2-0.4-0.3-0.9-0.3-1.4
		c0-0.5,0-1.1,0.2-1.7c0.1-0.6,0.3-1.1,0.6-1.6c0.3-0.5,0.5-0.8,0.9-1.1c0.3-0.3,0.7-0.5,1.1-0.6c0.4-0.1,0.8-0.1,1.3,0
		c0.5,0.1,0.9,0.3,1.2,0.6c0.3,0.3,0.5,0.5,0.7,0.8l-1.2,1c-0.2-0.4-0.5-0.7-0.9-0.8c-0.2-0.1-0.5,0-0.7,0c-0.2,0.1-0.4,0.2-0.5,0.4
		c-0.2,0.2-0.3,0.4-0.4,0.7s-0.2,0.6-0.3,0.9C41,31.3,41,31.6,41,31.9c0,0.3,0,0.6,0.1,0.8c0.1,0.2,0.2,0.4,0.3,0.6
		c0.1,0.2,0.3,0.3,0.6,0.3c0.3,0.1,0.5,0.1,0.6,0l0.3-1.4l-0.8-0.2l0.3-1.5l2.3,0.5l-0.9,4C43.5,35.3,43.2,35.4,42.8,35.4z"/>
	<path d="M50.1,35.3c-0.2,0.3-0.4,0.6-0.7,0.9c-0.3,0.2-0.6,0.4-1,0.5c-0.4,0.1-0.8,0.1-1.2,0c-0.5-0.1-0.8-0.3-1.1-0.5
		c-0.3-0.2-0.5-0.5-0.6-0.8c-0.1-0.3-0.2-0.7-0.2-1.1c0-0.4,0-0.8,0.1-1.2l1.1-4.8l1.7,0.4l-1.1,4.6c0,0.2-0.1,0.4-0.1,0.6
		c0,0.2,0,0.4,0,0.5c0,0.1,0.1,0.3,0.2,0.4c0.1,0.1,0.2,0.2,0.4,0.2c0.2,0,0.3,0,0.4,0c0.1-0.1,0.2-0.1,0.3-0.3
		c0.1-0.1,0.2-0.3,0.2-0.4c0.1-0.2,0.1-0.4,0.2-0.6l1.1-4.6l1.7,0.4l-1.1,4.8C50.4,34.6,50.3,35,50.1,35.3z"/>
	<path d="M51.1,37.3l1.7-7.6l1.7,0.4l-1.7,7.6L51.1,37.3z"/>
	<path d="M60.4,35.4c-0.1,0.6-0.3,1.1-0.5,1.5c-0.2,0.4-0.5,0.8-0.8,1.1c-0.3,0.3-0.7,0.5-1.2,0.5c-0.4,0.1-0.9,0.1-1.5-0.1L54.2,38
		l1.7-7.6l2.1,0.5c0.5,0.1,1,0.3,1.4,0.6c0.4,0.3,0.6,0.6,0.8,1c0.2,0.4,0.3,0.8,0.3,1.3C60.5,34.3,60.5,34.8,60.4,35.4z M58.6,35
		c0.2-0.8,0.2-1.4,0-1.8c-0.2-0.4-0.5-0.7-0.9-0.8l-0.4-0.1l-1,4.6l0.4,0.1c0.4,0.1,0.8,0,1.1-0.4C58.2,36.3,58.5,35.8,58.6,35z"/>
	<path d="M60.5,39.4l1.7-7.6l3.7,0.8l-0.3,1.5l-2-0.5l-0.3,1.5l1.9,0.4l-0.3,1.4l-1.9-0.4l-0.4,1.6l2.2,0.5l-0.4,1.5L60.5,39.4z"/>
</g>
</svg>
